<mxfile host="app.diagrams.net" modified="2023-10-16T02:06:20.528Z" agent="Mozilla/5.0 (Windows NT 10.0; Win64; x64) AppleWebKit/537.36 (KHTML, like Gecko) Chrome/117.0.0.0 Safari/537.36" etag="ea_SeQ0aegXI8BlekD8n" version="22.0.4" type="device">
  <diagram name="Page-1" id="dPX_2XF36LBO8KbWEEkA">
    <mxGraphModel dx="875" dy="525" grid="1" gridSize="10" guides="1" tooltips="1" connect="1" arrows="1" fold="1" page="1" pageScale="1" pageWidth="850" pageHeight="1100" math="0" shadow="0">
      <root>
        <mxCell id="0" />
        <mxCell id="1" parent="0" />
        <mxCell id="nyWDMQUpkCFgN6BWgU8t-1" value="" style="rounded=0;whiteSpace=wrap;html=1;" vertex="1" parent="1">
          <mxGeometry x="10" y="130" width="280" height="110" as="geometry" />
        </mxCell>
        <mxCell id="nyWDMQUpkCFgN6BWgU8t-2" value="Username" style="rounded=0;whiteSpace=wrap;html=1;" vertex="1" parent="1">
          <mxGeometry x="20" y="140" width="80" height="40" as="geometry" />
        </mxCell>
        <mxCell id="nyWDMQUpkCFgN6BWgU8t-3" value="User Database Object" style="text;html=1;strokeColor=none;fillColor=none;align=center;verticalAlign=middle;whiteSpace=wrap;rounded=0;" vertex="1" parent="1">
          <mxGeometry x="97.5" y="90" width="105" height="30" as="geometry" />
        </mxCell>
        <mxCell id="nyWDMQUpkCFgN6BWgU8t-4" value="Password" style="rounded=0;whiteSpace=wrap;html=1;" vertex="1" parent="1">
          <mxGeometry x="110" y="140" width="80" height="40" as="geometry" />
        </mxCell>
        <mxCell id="nyWDMQUpkCFgN6BWgU8t-24" style="edgeStyle=orthogonalEdgeStyle;rounded=0;orthogonalLoop=1;jettySize=auto;html=1;exitX=1;exitY=0.5;exitDx=0;exitDy=0;entryX=0;entryY=0.5;entryDx=0;entryDy=0;" edge="1" parent="1" source="nyWDMQUpkCFgN6BWgU8t-5" target="nyWDMQUpkCFgN6BWgU8t-15">
          <mxGeometry relative="1" as="geometry" />
        </mxCell>
        <mxCell id="nyWDMQUpkCFgN6BWgU8t-5" value="Associated Rovers" style="rounded=0;whiteSpace=wrap;html=1;" vertex="1" parent="1">
          <mxGeometry x="200" y="140" width="80" height="40" as="geometry" />
        </mxCell>
        <mxCell id="nyWDMQUpkCFgN6BWgU8t-6" style="edgeStyle=orthogonalEdgeStyle;rounded=0;orthogonalLoop=1;jettySize=auto;html=1;exitX=0.5;exitY=1;exitDx=0;exitDy=0;" edge="1" parent="1" source="nyWDMQUpkCFgN6BWgU8t-1" target="nyWDMQUpkCFgN6BWgU8t-1">
          <mxGeometry relative="1" as="geometry" />
        </mxCell>
        <mxCell id="nyWDMQUpkCFgN6BWgU8t-8" style="edgeStyle=orthogonalEdgeStyle;rounded=0;orthogonalLoop=1;jettySize=auto;html=1;exitX=0.5;exitY=1;exitDx=0;exitDy=0;" edge="1" parent="1" source="nyWDMQUpkCFgN6BWgU8t-1" target="nyWDMQUpkCFgN6BWgU8t-1">
          <mxGeometry relative="1" as="geometry" />
        </mxCell>
        <mxCell id="nyWDMQUpkCFgN6BWgU8t-11" value="Associated Rovers" style="text;html=1;strokeColor=none;fillColor=none;align=center;verticalAlign=middle;whiteSpace=wrap;rounded=0;" vertex="1" parent="1">
          <mxGeometry x="407.5" y="90" width="105" height="30" as="geometry" />
        </mxCell>
        <mxCell id="nyWDMQUpkCFgN6BWgU8t-12" value="Date Created" style="rounded=0;whiteSpace=wrap;html=1;" vertex="1" parent="1">
          <mxGeometry x="20" y="190" width="80" height="40" as="geometry" />
        </mxCell>
        <mxCell id="nyWDMQUpkCFgN6BWgU8t-19" style="edgeStyle=orthogonalEdgeStyle;rounded=0;orthogonalLoop=1;jettySize=auto;html=1;entryX=0.5;entryY=0;entryDx=0;entryDy=0;" edge="1" parent="1" source="nyWDMQUpkCFgN6BWgU8t-13" target="nyWDMQUpkCFgN6BWgU8t-17">
          <mxGeometry relative="1" as="geometry" />
        </mxCell>
        <mxCell id="nyWDMQUpkCFgN6BWgU8t-13" value="Login Attempts" style="rounded=0;whiteSpace=wrap;html=1;" vertex="1" parent="1">
          <mxGeometry x="110" y="190" width="80" height="40" as="geometry" />
        </mxCell>
        <mxCell id="nyWDMQUpkCFgN6BWgU8t-15" value="" style="rounded=0;whiteSpace=wrap;html=1;" vertex="1" parent="1">
          <mxGeometry x="320" y="130" width="280" height="60" as="geometry" />
        </mxCell>
        <mxCell id="nyWDMQUpkCFgN6BWgU8t-17" value="" style="rounded=0;whiteSpace=wrap;html=1;" vertex="1" parent="1">
          <mxGeometry x="10" y="280" width="280" height="60" as="geometry" />
        </mxCell>
        <mxCell id="nyWDMQUpkCFgN6BWgU8t-20" value="Date Added" style="rounded=0;whiteSpace=wrap;html=1;" vertex="1" parent="1">
          <mxGeometry x="327.5" y="140" width="80" height="40" as="geometry" />
        </mxCell>
        <mxCell id="nyWDMQUpkCFgN6BWgU8t-21" value="Rover ID" style="rounded=0;whiteSpace=wrap;html=1;" vertex="1" parent="1">
          <mxGeometry x="420" y="140" width="80" height="40" as="geometry" />
        </mxCell>
        <mxCell id="nyWDMQUpkCFgN6BWgU8t-22" value="User Permission" style="rounded=0;whiteSpace=wrap;html=1;" vertex="1" parent="1">
          <mxGeometry x="512.5" y="140" width="80" height="40" as="geometry" />
        </mxCell>
        <mxCell id="nyWDMQUpkCFgN6BWgU8t-25" value="Date/Time" style="rounded=0;whiteSpace=wrap;html=1;" vertex="1" parent="1">
          <mxGeometry x="17.5" y="290" width="80" height="40" as="geometry" />
        </mxCell>
        <mxCell id="nyWDMQUpkCFgN6BWgU8t-26" value="Success?" style="rounded=0;whiteSpace=wrap;html=1;" vertex="1" parent="1">
          <mxGeometry x="110" y="290" width="80" height="40" as="geometry" />
        </mxCell>
        <mxCell id="nyWDMQUpkCFgN6BWgU8t-27" value="Time Spent" style="rounded=0;whiteSpace=wrap;html=1;" vertex="1" parent="1">
          <mxGeometry x="200" y="290" width="80" height="40" as="geometry" />
        </mxCell>
        <mxCell id="nyWDMQUpkCFgN6BWgU8t-28" value="Login Attempts" style="text;html=1;strokeColor=none;fillColor=none;align=center;verticalAlign=middle;whiteSpace=wrap;rounded=0;" vertex="1" parent="1">
          <mxGeometry x="97.5" y="340" width="105" height="30" as="geometry" />
        </mxCell>
      </root>
    </mxGraphModel>
  </diagram>
</mxfile>
